<?xml version="1.0" encoding="utf-8" standalone="no"?>
<!DOCTYPE svg PUBLIC "-//W3C//DTD SVG 1.1//EN"
  "http://www.w3.org/Graphics/SVG/1.1/DTD/svg11.dtd">
<svg xmlns:xlink="http://www.w3.org/1999/xlink" width="510.170937pt" height="330.418437pt" viewBox="0 0 510.170937 330.418437" xmlns="http://www.w3.org/2000/svg" version="1.1">
 <metadata>
  <rdf:RDF xmlns:dc="http://purl.org/dc/elements/1.1/" xmlns:cc="http://creativecommons.org/ns#" xmlns:rdf="http://www.w3.org/1999/02/22-rdf-syntax-ns#">
   <cc:Work>
    <dc:type rdf:resource="http://purl.org/dc/dcmitype/StillImage"/>
    <dc:date>2025-12-17T00:30:37.249039</dc:date>
    <dc:format>image/svg+xml</dc:format>
    <dc:creator>
     <cc:Agent>
      <dc:title>Matplotlib v3.10.7, https://matplotlib.org/</dc:title>
     </cc:Agent>
    </dc:creator>
   </cc:Work>
  </rdf:RDF>
 </metadata>
 <defs>
  <style type="text/css">*{stroke-linejoin: round; stroke-linecap: butt}</style>
 </defs>
 <g id="figure_1">
  <g id="patch_1">
   <path d="M 0 330.418437 
L 510.170937 330.418437 
L 510.170937 0 
L 0 0 
z
" style="fill: #ffffff"/>
  </g>
  <g id="axes_1">
   <g id="patch_2">
    <path d="M 56.570938 284.4 
L 502.970937 284.4 
L 502.970937 7.2 
L 56.570938 7.2 
z
" style="fill: #ffffff"/>
   </g>
   <g id="patch_3">
    <path d="M 56.570938 94.736842 
L 502.970937 94.736842 
L 502.970937 -36.568421 
L 56.570938 -36.568421 
z
" clip-path="url(#p1072b56dc6)" style="fill: #deb887; opacity: 0.2; stroke: #deb887; stroke-linejoin: miter"/>
   </g>
   <g id="patch_4">
    <path d="M 56.570938 313.578947 
L 502.970937 313.578947 
L 502.970937 196.863158 
L 56.570938 196.863158 
z
" clip-path="url(#p1072b56dc6)" style="fill: #40e0d0; opacity: 0.2; stroke: #40e0d0; stroke-linejoin: miter"/>
   </g>
   <g id="patch_5">
    <path d="M 76.861847 284.4 
L 304.120028 284.4 
L 304.120028 7.2 
L 76.861847 7.2 
z
" clip-path="url(#p1072b56dc6)" style="opacity: 0.05; stroke: #000000; stroke-linejoin: miter"/>
   </g>
   <g id="patch_6">
    <path d="M 393.400028 284.4 
L 409.632756 284.4 
L 409.632756 7.2 
L 393.400028 7.2 
z
" clip-path="url(#p1072b56dc6)" style="opacity: 0.05; stroke: #000000; stroke-linejoin: miter"/>
   </g>
   <g id="matplotlib.axis_1">
    <g id="xtick_1">
     <g id="line2d_1">
      <defs>
       <path id="m106476d5a3" d="M 0 0 
L 0 3.5 
" style="stroke: #ffffff; stroke-width: 0.8"/>
      </defs>
      <g>
       <use xlink:href="#m106476d5a3" x="76.861847" y="284.4" style="fill: #ffffff; stroke: #ffffff; stroke-width: 0.8"/>
      </g>
     </g>
     <g id="text_1">
      <!-- 0 -->
      <g style="fill: #ffffff" transform="translate(72.96919 301.420937) scale(0.14 -0.14)">
       <defs>
        <path id="ArialMT-30" d="M 266 2259 
Q 266 3072 433 3567 
Q 600 4063 929 4331 
Q 1259 4600 1759 4600 
Q 2128 4600 2406 4451 
Q 2684 4303 2865 4023 
Q 3047 3744 3150 3342 
Q 3253 2941 3253 2259 
Q 3253 1453 3087 958 
Q 2922 463 2592 192 
Q 2263 -78 1759 -78 
Q 1097 -78 719 397 
Q 266 969 266 2259 
z
M 844 2259 
Q 844 1131 1108 757 
Q 1372 384 1759 384 
Q 2147 384 2411 759 
Q 2675 1134 2675 2259 
Q 2675 3391 2411 3762 
Q 2147 4134 1753 4134 
Q 1366 4134 1134 3806 
Q 844 3388 844 2259 
z
" transform="scale(0.015625)"/>
       </defs>
       <use xlink:href="#ArialMT-30"/>
      </g>
     </g>
    </g>
    <g id="xtick_2">
     <g id="line2d_2">
      <g>
       <use xlink:href="#m106476d5a3" x="158.025483" y="284.4" style="fill: #ffffff; stroke: #ffffff; stroke-width: 0.8"/>
      </g>
     </g>
     <g id="text_2">
      <!-- 20 -->
      <g style="fill: #ffffff" transform="translate(150.24017 301.420937) scale(0.14 -0.14)">
       <defs>
        <path id="ArialMT-32" d="M 3222 541 
L 3222 0 
L 194 0 
Q 188 203 259 391 
Q 375 700 629 1000 
Q 884 1300 1366 1694 
Q 2113 2306 2375 2664 
Q 2638 3022 2638 3341 
Q 2638 3675 2398 3904 
Q 2159 4134 1775 4134 
Q 1369 4134 1125 3890 
Q 881 3647 878 3216 
L 300 3275 
Q 359 3922 746 4261 
Q 1134 4600 1788 4600 
Q 2447 4600 2831 4234 
Q 3216 3869 3216 3328 
Q 3216 3053 3103 2787 
Q 2991 2522 2730 2228 
Q 2469 1934 1863 1422 
Q 1356 997 1212 845 
Q 1069 694 975 541 
L 3222 541 
z
" transform="scale(0.015625)"/>
       </defs>
       <use xlink:href="#ArialMT-32"/>
       <use xlink:href="#ArialMT-30" transform="translate(55.615234 0)"/>
      </g>
     </g>
    </g>
    <g id="xtick_3">
     <g id="line2d_3">
      <g>
       <use xlink:href="#m106476d5a3" x="239.189119" y="284.4" style="fill: #ffffff; stroke: #ffffff; stroke-width: 0.8"/>
      </g>
     </g>
     <g id="text_3">
      <!-- 40 -->
      <g style="fill: #ffffff" transform="translate(231.403807 301.420937) scale(0.14 -0.14)">
       <defs>
        <path id="ArialMT-34" d="M 2069 0 
L 2069 1097 
L 81 1097 
L 81 1613 
L 2172 4581 
L 2631 4581 
L 2631 1613 
L 3250 1613 
L 3250 1097 
L 2631 1097 
L 2631 0 
L 2069 0 
z
M 2069 1613 
L 2069 3678 
L 634 1613 
L 2069 1613 
z
" transform="scale(0.015625)"/>
       </defs>
       <use xlink:href="#ArialMT-34"/>
       <use xlink:href="#ArialMT-30" transform="translate(55.615234 0)"/>
      </g>
     </g>
    </g>
    <g id="xtick_4">
     <g id="line2d_4">
      <g>
       <use xlink:href="#m106476d5a3" x="320.352756" y="284.4" style="fill: #ffffff; stroke: #ffffff; stroke-width: 0.8"/>
      </g>
     </g>
     <g id="text_4">
      <!-- 60 -->
      <g style="fill: #ffffff" transform="translate(312.567443 301.420937) scale(0.14 -0.14)">
       <defs>
        <path id="ArialMT-36" d="M 3184 3459 
L 2625 3416 
Q 2550 3747 2413 3897 
Q 2184 4138 1850 4138 
Q 1581 4138 1378 3988 
Q 1113 3794 959 3422 
Q 806 3050 800 2363 
Q 1003 2672 1297 2822 
Q 1591 2972 1913 2972 
Q 2475 2972 2870 2558 
Q 3266 2144 3266 1488 
Q 3266 1056 3080 686 
Q 2894 316 2569 119 
Q 2244 -78 1831 -78 
Q 1128 -78 684 439 
Q 241 956 241 2144 
Q 241 3472 731 4075 
Q 1159 4600 1884 4600 
Q 2425 4600 2770 4297 
Q 3116 3994 3184 3459 
z
M 888 1484 
Q 888 1194 1011 928 
Q 1134 663 1356 523 
Q 1578 384 1822 384 
Q 2178 384 2434 671 
Q 2691 959 2691 1453 
Q 2691 1928 2437 2201 
Q 2184 2475 1800 2475 
Q 1419 2475 1153 2201 
Q 888 1928 888 1484 
z
" transform="scale(0.015625)"/>
       </defs>
       <use xlink:href="#ArialMT-36"/>
       <use xlink:href="#ArialMT-30" transform="translate(55.615234 0)"/>
      </g>
     </g>
    </g>
    <g id="xtick_5">
     <g id="line2d_5">
      <g>
       <use xlink:href="#m106476d5a3" x="401.516392" y="284.4" style="fill: #ffffff; stroke: #ffffff; stroke-width: 0.8"/>
      </g>
     </g>
     <g id="text_5">
      <!-- 80 -->
      <g style="fill: #ffffff" transform="translate(393.73108 301.420937) scale(0.14 -0.14)">
       <defs>
        <path id="ArialMT-38" d="M 1131 2484 
Q 781 2613 612 2850 
Q 444 3088 444 3419 
Q 444 3919 803 4259 
Q 1163 4600 1759 4600 
Q 2359 4600 2725 4251 
Q 3091 3903 3091 3403 
Q 3091 3084 2923 2848 
Q 2756 2613 2416 2484 
Q 2838 2347 3058 2040 
Q 3278 1734 3278 1309 
Q 3278 722 2862 322 
Q 2447 -78 1769 -78 
Q 1091 -78 675 323 
Q 259 725 259 1325 
Q 259 1772 486 2073 
Q 713 2375 1131 2484 
z
M 1019 3438 
Q 1019 3113 1228 2906 
Q 1438 2700 1772 2700 
Q 2097 2700 2305 2904 
Q 2513 3109 2513 3406 
Q 2513 3716 2298 3927 
Q 2084 4138 1766 4138 
Q 1444 4138 1231 3931 
Q 1019 3725 1019 3438 
z
M 838 1322 
Q 838 1081 952 856 
Q 1066 631 1291 507 
Q 1516 384 1775 384 
Q 2178 384 2440 643 
Q 2703 903 2703 1303 
Q 2703 1709 2433 1975 
Q 2163 2241 1756 2241 
Q 1359 2241 1098 1978 
Q 838 1716 838 1322 
z
" transform="scale(0.015625)"/>
       </defs>
       <use xlink:href="#ArialMT-38"/>
       <use xlink:href="#ArialMT-30" transform="translate(55.615234 0)"/>
      </g>
     </g>
    </g>
    <g id="xtick_6">
     <g id="line2d_6">
      <g>
       <use xlink:href="#m106476d5a3" x="482.680028" y="284.4" style="fill: #ffffff; stroke: #ffffff; stroke-width: 0.8"/>
      </g>
     </g>
     <g id="text_6">
      <!-- 100 -->
      <g style="fill: #ffffff" transform="translate(471.00206 301.420937) scale(0.14 -0.14)">
       <defs>
        <path id="ArialMT-31" d="M 2384 0 
L 1822 0 
L 1822 3584 
Q 1619 3391 1289 3197 
Q 959 3003 697 2906 
L 697 3450 
Q 1169 3672 1522 3987 
Q 1875 4303 2022 4600 
L 2384 4600 
L 2384 0 
z
" transform="scale(0.015625)"/>
       </defs>
       <use xlink:href="#ArialMT-31"/>
       <use xlink:href="#ArialMT-30" transform="translate(55.615234 0)"/>
       <use xlink:href="#ArialMT-30" transform="translate(111.230469 0)"/>
      </g>
     </g>
    </g>
    <g id="text_7">
     <!-- Time (Myr) -->
     <g style="fill: #ffffff" transform="translate(241.417188 319.850937) scale(0.16 -0.16)">
      <defs>
       <path id="ArialMT-54" d="M 1659 0 
L 1659 4041 
L 150 4041 
L 150 4581 
L 3781 4581 
L 3781 4041 
L 2266 4041 
L 2266 0 
L 1659 0 
z
" transform="scale(0.015625)"/>
       <path id="ArialMT-69" d="M 425 3934 
L 425 4581 
L 988 4581 
L 988 3934 
L 425 3934 
z
M 425 0 
L 425 3319 
L 988 3319 
L 988 0 
L 425 0 
z
" transform="scale(0.015625)"/>
       <path id="ArialMT-6d" d="M 422 0 
L 422 3319 
L 925 3319 
L 925 2853 
Q 1081 3097 1340 3245 
Q 1600 3394 1931 3394 
Q 2300 3394 2536 3241 
Q 2772 3088 2869 2813 
Q 3263 3394 3894 3394 
Q 4388 3394 4653 3120 
Q 4919 2847 4919 2278 
L 4919 0 
L 4359 0 
L 4359 2091 
Q 4359 2428 4304 2576 
Q 4250 2725 4106 2815 
Q 3963 2906 3769 2906 
Q 3419 2906 3187 2673 
Q 2956 2441 2956 1928 
L 2956 0 
L 2394 0 
L 2394 2156 
Q 2394 2531 2256 2718 
Q 2119 2906 1806 2906 
Q 1569 2906 1367 2781 
Q 1166 2656 1075 2415 
Q 984 2175 984 1722 
L 984 0 
L 422 0 
z
" transform="scale(0.015625)"/>
       <path id="ArialMT-65" d="M 2694 1069 
L 3275 997 
Q 3138 488 2766 206 
Q 2394 -75 1816 -75 
Q 1088 -75 661 373 
Q 234 822 234 1631 
Q 234 2469 665 2931 
Q 1097 3394 1784 3394 
Q 2450 3394 2872 2941 
Q 3294 2488 3294 1666 
Q 3294 1616 3291 1516 
L 816 1516 
Q 847 969 1125 678 
Q 1403 388 1819 388 
Q 2128 388 2347 550 
Q 2566 713 2694 1069 
z
M 847 1978 
L 2700 1978 
Q 2663 2397 2488 2606 
Q 2219 2931 1791 2931 
Q 1403 2931 1139 2672 
Q 875 2413 847 1978 
z
" transform="scale(0.015625)"/>
       <path id="ArialMT-20" transform="scale(0.015625)"/>
       <path id="ArialMT-28" d="M 1497 -1347 
Q 1031 -759 709 28 
Q 388 816 388 1659 
Q 388 2403 628 3084 
Q 909 3875 1497 4659 
L 1900 4659 
Q 1522 4009 1400 3731 
Q 1209 3300 1100 2831 
Q 966 2247 966 1656 
Q 966 153 1900 -1347 
L 1497 -1347 
z
" transform="scale(0.015625)"/>
       <path id="ArialMT-4d" d="M 475 0 
L 475 4581 
L 1388 4581 
L 2472 1338 
Q 2622 884 2691 659 
Q 2769 909 2934 1394 
L 4031 4581 
L 4847 4581 
L 4847 0 
L 4263 0 
L 4263 3834 
L 2931 0 
L 2384 0 
L 1059 3900 
L 1059 0 
L 475 0 
z
" transform="scale(0.015625)"/>
       <path id="ArialMT-79" d="M 397 -1278 
L 334 -750 
Q 519 -800 656 -800 
Q 844 -800 956 -737 
Q 1069 -675 1141 -563 
Q 1194 -478 1313 -144 
Q 1328 -97 1363 -6 
L 103 3319 
L 709 3319 
L 1400 1397 
Q 1534 1031 1641 628 
Q 1738 1016 1872 1384 
L 2581 3319 
L 3144 3319 
L 1881 -56 
Q 1678 -603 1566 -809 
Q 1416 -1088 1222 -1217 
Q 1028 -1347 759 -1347 
Q 597 -1347 397 -1278 
z
" transform="scale(0.015625)"/>
       <path id="ArialMT-72" d="M 416 0 
L 416 3319 
L 922 3319 
L 922 2816 
Q 1116 3169 1280 3281 
Q 1444 3394 1641 3394 
Q 1925 3394 2219 3213 
L 2025 2691 
Q 1819 2813 1613 2813 
Q 1428 2813 1281 2702 
Q 1134 2591 1072 2394 
Q 978 2094 978 1738 
L 978 0 
L 416 0 
z
" transform="scale(0.015625)"/>
       <path id="ArialMT-29" d="M 791 -1347 
L 388 -1347 
Q 1322 153 1322 1656 
Q 1322 2244 1188 2822 
Q 1081 3291 891 3722 
Q 769 4003 388 4659 
L 791 4659 
Q 1378 3875 1659 3084 
Q 1900 2403 1900 1659 
Q 1900 816 1576 28 
Q 1253 -759 791 -1347 
z
" transform="scale(0.015625)"/>
      </defs>
      <use xlink:href="#ArialMT-54"/>
      <use xlink:href="#ArialMT-69" transform="translate(57.333984 0)"/>
      <use xlink:href="#ArialMT-6d" transform="translate(79.550781 0)"/>
      <use xlink:href="#ArialMT-65" transform="translate(162.851562 0)"/>
      <use xlink:href="#ArialMT-20" transform="translate(218.466797 0)"/>
      <use xlink:href="#ArialMT-28" transform="translate(246.25 0)"/>
      <use xlink:href="#ArialMT-4d" transform="translate(279.550781 0)"/>
      <use xlink:href="#ArialMT-79" transform="translate(362.851562 0)"/>
      <use xlink:href="#ArialMT-72" transform="translate(412.851562 0)"/>
      <use xlink:href="#ArialMT-29" transform="translate(446.152344 0)"/>
     </g>
    </g>
   </g>
   <g id="matplotlib.axis_2">
    <g id="ytick_1">
     <g id="line2d_7">
      <defs>
       <path id="m6abff55a5e" d="M 0 0 
L -3.5 0 
" style="stroke: #ffffff; stroke-width: 0.8"/>
      </defs>
      <g>
       <use xlink:href="#m6abff55a5e" x="56.570938" y="255.221053" style="fill: #ffffff; stroke: #ffffff; stroke-width: 0.8"/>
      </g>
     </g>
     <g id="text_8">
      <!-- 240 -->
      <g style="fill: #ffffff" transform="translate(26.215 260.231521) scale(0.14 -0.14)">
       <use xlink:href="#ArialMT-32"/>
       <use xlink:href="#ArialMT-34" transform="translate(55.615234 0)"/>
       <use xlink:href="#ArialMT-30" transform="translate(111.230469 0)"/>
      </g>
     </g>
    </g>
    <g id="ytick_2">
     <g id="line2d_8">
      <g>
       <use xlink:href="#m6abff55a5e" x="56.570938" y="196.863158" style="fill: #ffffff; stroke: #ffffff; stroke-width: 0.8"/>
      </g>
     </g>
     <g id="text_9">
      <!-- 260 -->
      <g style="fill: #ffffff" transform="translate(26.215 201.873627) scale(0.14 -0.14)">
       <use xlink:href="#ArialMT-32"/>
       <use xlink:href="#ArialMT-36" transform="translate(55.615234 0)"/>
       <use xlink:href="#ArialMT-30" transform="translate(111.230469 0)"/>
      </g>
     </g>
    </g>
    <g id="ytick_3">
     <g id="line2d_9">
      <g>
       <use xlink:href="#m6abff55a5e" x="56.570938" y="138.505263" style="fill: #ffffff; stroke: #ffffff; stroke-width: 0.8"/>
      </g>
     </g>
     <g id="text_10">
      <!-- 280 -->
      <g style="fill: #ffffff" transform="translate(26.215 143.515732) scale(0.14 -0.14)">
       <use xlink:href="#ArialMT-32"/>
       <use xlink:href="#ArialMT-38" transform="translate(55.615234 0)"/>
       <use xlink:href="#ArialMT-30" transform="translate(111.230469 0)"/>
      </g>
     </g>
    </g>
    <g id="ytick_4">
     <g id="line2d_10">
      <g>
       <use xlink:href="#m6abff55a5e" x="56.570938" y="80.147368" style="fill: #ffffff; stroke: #ffffff; stroke-width: 0.8"/>
      </g>
     </g>
     <g id="text_11">
      <!-- 300 -->
      <g style="fill: #ffffff" transform="translate(26.215 85.157837) scale(0.14 -0.14)">
       <defs>
        <path id="ArialMT-33" d="M 269 1209 
L 831 1284 
Q 928 806 1161 595 
Q 1394 384 1728 384 
Q 2125 384 2398 659 
Q 2672 934 2672 1341 
Q 2672 1728 2419 1979 
Q 2166 2231 1775 2231 
Q 1616 2231 1378 2169 
L 1441 2663 
Q 1497 2656 1531 2656 
Q 1891 2656 2178 2843 
Q 2466 3031 2466 3422 
Q 2466 3731 2256 3934 
Q 2047 4138 1716 4138 
Q 1388 4138 1169 3931 
Q 950 3725 888 3313 
L 325 3413 
Q 428 3978 793 4289 
Q 1159 4600 1703 4600 
Q 2078 4600 2393 4439 
Q 2709 4278 2876 4000 
Q 3044 3722 3044 3409 
Q 3044 3113 2884 2869 
Q 2725 2625 2413 2481 
Q 2819 2388 3044 2092 
Q 3269 1797 3269 1353 
Q 3269 753 2831 336 
Q 2394 -81 1725 -81 
Q 1122 -81 723 278 
Q 325 638 269 1209 
z
" transform="scale(0.015625)"/>
       </defs>
       <use xlink:href="#ArialMT-33"/>
       <use xlink:href="#ArialMT-30" transform="translate(55.615234 0)"/>
       <use xlink:href="#ArialMT-30" transform="translate(111.230469 0)"/>
      </g>
     </g>
    </g>
    <g id="ytick_5">
     <g id="line2d_11">
      <g>
       <use xlink:href="#m6abff55a5e" x="56.570938" y="21.789474" style="fill: #ffffff; stroke: #ffffff; stroke-width: 0.8"/>
      </g>
     </g>
     <g id="text_12">
      <!-- 320 -->
      <g style="fill: #ffffff" transform="translate(26.215 26.799942) scale(0.14 -0.14)">
       <use xlink:href="#ArialMT-33"/>
       <use xlink:href="#ArialMT-32" transform="translate(55.615234 0)"/>
       <use xlink:href="#ArialMT-30" transform="translate(111.230469 0)"/>
      </g>
     </g>
    </g>
    <g id="text_13">
     <!-- Temperature (K) -->
     <g style="fill: #ffffff" transform="translate(18.8475 203.58875) rotate(-90) scale(0.16 -0.16)">
      <defs>
       <path id="ArialMT-70" d="M 422 -1272 
L 422 3319 
L 934 3319 
L 934 2888 
Q 1116 3141 1344 3267 
Q 1572 3394 1897 3394 
Q 2322 3394 2647 3175 
Q 2972 2956 3137 2557 
Q 3303 2159 3303 1684 
Q 3303 1175 3120 767 
Q 2938 359 2589 142 
Q 2241 -75 1856 -75 
Q 1575 -75 1351 44 
Q 1128 163 984 344 
L 984 -1272 
L 422 -1272 
z
M 931 1641 
Q 931 1000 1190 694 
Q 1450 388 1819 388 
Q 2194 388 2461 705 
Q 2728 1022 2728 1688 
Q 2728 2322 2467 2637 
Q 2206 2953 1844 2953 
Q 1484 2953 1207 2617 
Q 931 2281 931 1641 
z
" transform="scale(0.015625)"/>
       <path id="ArialMT-61" d="M 2588 409 
Q 2275 144 1986 34 
Q 1697 -75 1366 -75 
Q 819 -75 525 192 
Q 231 459 231 875 
Q 231 1119 342 1320 
Q 453 1522 633 1644 
Q 813 1766 1038 1828 
Q 1203 1872 1538 1913 
Q 2219 1994 2541 2106 
Q 2544 2222 2544 2253 
Q 2544 2597 2384 2738 
Q 2169 2928 1744 2928 
Q 1347 2928 1158 2789 
Q 969 2650 878 2297 
L 328 2372 
Q 403 2725 575 2942 
Q 747 3159 1072 3276 
Q 1397 3394 1825 3394 
Q 2250 3394 2515 3294 
Q 2781 3194 2906 3042 
Q 3031 2891 3081 2659 
Q 3109 2516 3109 2141 
L 3109 1391 
Q 3109 606 3145 398 
Q 3181 191 3288 0 
L 2700 0 
Q 2613 175 2588 409 
z
M 2541 1666 
Q 2234 1541 1622 1453 
Q 1275 1403 1131 1340 
Q 988 1278 909 1158 
Q 831 1038 831 891 
Q 831 666 1001 516 
Q 1172 366 1500 366 
Q 1825 366 2078 508 
Q 2331 650 2450 897 
Q 2541 1088 2541 1459 
L 2541 1666 
z
" transform="scale(0.015625)"/>
       <path id="ArialMT-74" d="M 1650 503 
L 1731 6 
Q 1494 -44 1306 -44 
Q 1000 -44 831 53 
Q 663 150 594 308 
Q 525 466 525 972 
L 525 2881 
L 113 2881 
L 113 3319 
L 525 3319 
L 525 4141 
L 1084 4478 
L 1084 3319 
L 1650 3319 
L 1650 2881 
L 1084 2881 
L 1084 941 
Q 1084 700 1114 631 
Q 1144 563 1211 522 
Q 1278 481 1403 481 
Q 1497 481 1650 503 
z
" transform="scale(0.015625)"/>
       <path id="ArialMT-75" d="M 2597 0 
L 2597 488 
Q 2209 -75 1544 -75 
Q 1250 -75 995 37 
Q 741 150 617 320 
Q 494 491 444 738 
Q 409 903 409 1263 
L 409 3319 
L 972 3319 
L 972 1478 
Q 972 1038 1006 884 
Q 1059 663 1231 536 
Q 1403 409 1656 409 
Q 1909 409 2131 539 
Q 2353 669 2445 892 
Q 2538 1116 2538 1541 
L 2538 3319 
L 3100 3319 
L 3100 0 
L 2597 0 
z
" transform="scale(0.015625)"/>
       <path id="ArialMT-4b" d="M 469 0 
L 469 4581 
L 1075 4581 
L 1075 2309 
L 3350 4581 
L 4172 4581 
L 2250 2725 
L 4256 0 
L 3456 0 
L 1825 2319 
L 1075 1588 
L 1075 0 
L 469 0 
z
" transform="scale(0.015625)"/>
      </defs>
      <use xlink:href="#ArialMT-54"/>
      <use xlink:href="#ArialMT-65" transform="translate(49.958984 0)"/>
      <use xlink:href="#ArialMT-6d" transform="translate(105.574219 0)"/>
      <use xlink:href="#ArialMT-70" transform="translate(188.875 0)"/>
      <use xlink:href="#ArialMT-65" transform="translate(244.490234 0)"/>
      <use xlink:href="#ArialMT-72" transform="translate(300.105469 0)"/>
      <use xlink:href="#ArialMT-61" transform="translate(333.40625 0)"/>
      <use xlink:href="#ArialMT-74" transform="translate(389.021484 0)"/>
      <use xlink:href="#ArialMT-75" transform="translate(416.804688 0)"/>
      <use xlink:href="#ArialMT-72" transform="translate(472.419922 0)"/>
      <use xlink:href="#ArialMT-65" transform="translate(505.720703 0)"/>
      <use xlink:href="#ArialMT-20" transform="translate(561.335938 0)"/>
      <use xlink:href="#ArialMT-28" transform="translate(589.119141 0)"/>
      <use xlink:href="#ArialMT-4b" transform="translate(622.419922 0)"/>
      <use xlink:href="#ArialMT-29" transform="translate(689.119141 0)"/>
     </g>
    </g>
   </g>
   <g id="line2d_12">
    <path d="M 76.861847 115.162105 
L 76.959243 119.752101 
L 77.109396 134.667482 
L 77.154036 160.058536 
L 77.170268 261.794577 
L 77.304188 260.83529 
L 77.730297 256.23424 
L 79.049207 241.761139 
L 80.051577 233.434687 
L 81.167577 226.000512 
L 82.429672 219.080534 
L 83.854094 212.500643 
L 85.436785 206.229147 
L 87.145279 200.358079 
L 88.293745 196.520888 
L 88.305919 179.944646 
L 88.318094 57.976733 
L 88.427665 58.215071 
L 88.918705 59.670452 
L 89.779039 62.975506 
L 90.732712 67.524334 
L 91.621454 72.869146 
L 92.429032 79.115158 
L 93.151388 86.478933 
L 93.796639 95.413656 
L 94.222748 104.261931 
L 94.555519 116.029414 
L 94.75437 131.112335 
L 94.819301 156.208813 
L 94.835534 261.642467 
L 94.985687 260.717286 
L 95.363097 256.829681 
L 96.856508 240.648961 
L 97.871054 232.463745 
L 99.003287 225.113177 
L 100.285672 218.239297 
L 101.730385 211.698231 
L 103.329308 205.477052 
L 105.054036 199.65113 
L 105.979301 196.616684 
L 105.991476 184.259485 
L 106.007708 57.979823 
L 106.117279 58.170595 
L 106.612377 59.359108 
L 107.553876 62.260696 
L 108.63741 66.317147 
L 109.656014 71.006663 
L 110.593454 76.395072 
L 111.445672 82.629748 
L 112.212668 89.932293 
L 112.866036 98.30132 
L 113.312436 107.086686 
L 113.653323 118.342014 
L 113.852174 132.484619 
L 113.913047 153.908434 
L 113.933337 261.43332 
L 114.091607 260.296467 
L 114.550181 255.281872 
L 115.787927 241.803544 
L 116.790297 233.468786 
L 117.906297 226.028355 
L 119.164334 219.124174 
L 120.588756 212.537804 
L 122.171447 206.261228 
L 123.879941 200.386032 
L 125.036523 196.593692 
L 125.048697 183.200743 
L 125.060872 57.968331 
L 125.174501 58.12045 
L 125.669599 59.062753 
L 126.696319 61.563334 
L 127.942181 65.172506 
L 129.123112 69.283329 
L 130.218821 73.918652 
L 131.22525 79.16242 
L 132.142399 85.143433 
L 132.978385 92.098868 
L 133.652043 99.531027 
L 134.143083 107.626534 
L 134.52861 117.820345 
L 134.763985 129.951674 
L 134.849207 146.060527 
L 134.873556 208.058759 
L 134.877614 261.160807 
L 134.987185 260.333822 
L 135.429527 255.545441 
L 136.703796 241.671491 
L 137.706167 233.364279 
L 138.822167 225.943407 
L 140.084261 219.033017 
L 141.508683 212.460254 
L 143.095432 206.179385 
L 144.807985 200.301744 
L 145.936159 196.708402 
L 145.948334 188.575924 
L 145.964567 57.971755 
L 146.082254 58.090164 
L 146.58141 58.830789 
L 147.717701 60.98596 
L 149.178647 64.216759 
L 150.570603 67.839794 
L 151.865163 71.835539 
L 153.070443 76.285568 
L 154.182385 81.257226 
L 155.205047 86.870105 
L 156.142487 93.283868 
L 156.864843 99.681684 
L 157.42893 106.794788 
L 157.887505 115.47918 
L 158.208101 125.894798 
L 158.354196 137.828844 
L 158.398836 165.437833 
L 158.41101 260.935824 
L 158.536814 259.872444 
L 159.100901 253.460564 
L 160.192552 241.747816 
L 161.194923 233.424808 
L 162.310923 225.992676 
L 163.573017 219.074103 
L 164.997439 212.495229 
L 166.58013 206.224508 
L 168.288625 200.354059 
L 169.433032 196.712865 
L 169.445207 188.789792 
L 169.461439 57.967262 
L 169.583185 58.052678 
L 170.086399 58.612528 
L 171.348494 60.424779 
L 173.125977 63.345308 
L 174.818239 66.55764 
L 176.40093 70.042251 
L 177.882167 73.847564 
L 179.253832 77.989984 
L 180.532159 82.569029 
L 181.71309 87.641186 
L 182.804741 93.326887 
L 183.665076 98.925523 
L 184.34685 104.930082 
L 184.923112 112.034393 
L 185.37357 120.410819 
L 185.657643 129.92164 
L 185.771272 141.518306 
L 185.803737 169.813128 
L 185.815912 260.72878 
L 185.933599 259.663102 
L 186.599141 251.965518 
L 187.625861 241.179993 
L 188.636348 232.915035 
L 189.760465 225.529221 
L 191.030676 218.647027 
L 192.467272 212.079939 
L 194.062137 205.821467 
L 195.778748 199.977012 
L 196.805468 196.69377 
L 196.817643 187.877212 
L 196.833876 57.962498 
L 196.951563 58.012523 
L 197.458836 58.409014 
L 198.867025 59.875813 
L 201.159897 62.561737 
L 203.322908 65.438486 
L 205.364174 68.524104 
L 207.267461 71.806693 
L 209.049003 75.324127 
L 210.704741 79.089131 
L 212.250908 83.161498 
L 213.695621 87.602951 
L 215.038879 92.461202 
L 216.187345 97.426909 
L 217.055796 102.232813 
L 217.818734 107.73235 
L 218.468043 114.063381 
L 218.979374 121.273842 
L 219.312145 129.125044 
L 219.462297 137.804537 
L 219.510996 154.030095 
L 219.531287 260.503133 
L 219.70173 258.809196 
L 221.913439 236.010228 
L 222.988857 228.338419 
L 224.202254 221.272506 
L 225.573919 214.591032 
L 227.11197 208.198082 
L 228.779883 202.204091 
L 230.492436 196.271039 
L 230.50461 169.467256 
L 230.516785 57.959526 
L 230.622297 57.977973 
L 231.133628 58.227141 
L 232.708203 59.33651 
L 235.99533 61.901017 
L 239.07549 64.584537 
L 241.989265 67.417446 
L 244.696072 70.357836 
L 247.240552 73.450442 
L 249.602414 76.670515 
L 251.814123 80.063529 
L 253.871621 83.627357 
L 255.807374 87.428145 
L 257.617323 91.475548 
L 259.289294 95.757939 
L 260.490516 99.443884 
L 261.578108 103.508827 
L 262.552072 108.022124 
L 263.40429 113.042894 
L 264.114472 118.574097 
L 264.65421 124.542239 
L 264.995097 130.759354 
L 265.153367 137.652418 
L 265.210181 151.5378 
L 265.23453 260.28399 
L 265.433381 258.190816 
L 267.259563 238.716865 
L 268.298457 230.753244 
L 269.463156 223.527303 
L 270.782065 216.73456 
L 272.267359 210.245538 
L 273.89469 204.119277 
L 275.643767 198.391105 
L 276.163214 196.636303 
L 276.175388 185.170209 
L 276.268727 57.949246 
L 276.30525 57.950168 
L 276.857163 58.088484 
L 278.89437 58.947324 
L 284.839607 61.667843 
L 290.427723 64.467683 
L 295.752057 67.382614 
L 300.711156 70.348459 
L 305.382123 73.399811 
L 309.708145 76.488668 
L 313.75821 79.652862 
L 317.524203 82.874935 
L 321.054821 86.187576 
L 324.358181 89.589908 
L 327.474865 93.119472 
L 330.132974 96.449511 
L 332.125541 99.317897 
L 333.947665 102.331394 
L 335.611519 105.514905 
L 337.117105 108.876544 
L 338.464421 112.429706 
L 339.64941 116.185291 
L 340.651781 120.105714 
L 341.451243 124.127856 
L 342.039679 128.221154 
L 342.41709 132.414885 
L 342.603767 136.994793 
L 342.680872 145.738848 
L 342.709279 187.907441 
L 342.717396 260.039215 
L 342.822908 258.926736 
L 344.933163 236.868023 
L 345.996407 229.108052 
L 347.19357 221.995011 
L 348.549003 215.274829 
L 350.070821 208.848693 
L 351.726559 202.810164 
L 353.499985 197.173985 
L 353.613614 196.763627 
L 353.625788 191.248281 
L 353.771883 57.921161 
L 354.392785 57.950107 
L 357.444537 58.491216 
L 399.46701 66.002233 
L 422.497192 69.882233 
L 442.617657 73.050655 
L 461.524727 75.803737 
L 479.745963 78.233692 
L 482.680028 78.603563 
L 482.680028 78.603563 
" clip-path="url(#p1072b56dc6)" style="fill: none; stroke: #000000; stroke-width: 1.5; stroke-linecap: square"/>
   </g>
   <g id="LineCollection_1">
    <path d="M 76.861847 33.461053 
L 304.120028 33.461053 
" clip-path="url(#p1072b56dc6)" style="fill: none; stroke: #000000; stroke-width: 1.5"/>
   </g>
   <g id="line2d_13">
    <path d="M 76.861847 39.296842 
L 76.861847 27.625263 
" clip-path="url(#p1072b56dc6)" style="fill: none; stroke: #000000; stroke-width: 1.5; stroke-linecap: square"/>
   </g>
   <g id="line2d_14">
    <path d="M 304.120028 39.296842 
L 304.120028 27.625263 
" clip-path="url(#p1072b56dc6)" style="fill: none; stroke: #000000; stroke-width: 1.5; stroke-linecap: square"/>
   </g>
   <g id="LineCollection_2">
    <path d="M 393.400028 33.461053 
L 409.632756 33.461053 
" clip-path="url(#p1072b56dc6)" style="fill: none; stroke: #000000; stroke-width: 1.5"/>
   </g>
   <g id="line2d_15">
    <path d="M 393.400028 39.296842 
L 393.400028 27.625263 
" clip-path="url(#p1072b56dc6)" style="fill: none; stroke: #000000; stroke-width: 1.5; stroke-linecap: square"/>
   </g>
   <g id="line2d_16">
    <path d="M 409.632756 39.296842 
L 409.632756 27.625263 
" clip-path="url(#p1072b56dc6)" style="fill: none; stroke: #000000; stroke-width: 1.5; stroke-linecap: square"/>
   </g>
   <g id="patch_7">
    <path d="M 56.570938 284.4 
L 56.570938 7.2 
" style="fill: none; stroke: #000000; stroke-width: 0.8; stroke-linejoin: miter; stroke-linecap: square"/>
   </g>
   <g id="patch_8">
    <path d="M 502.970937 284.4 
L 502.970937 7.2 
" style="fill: none; stroke: #000000; stroke-width: 0.8; stroke-linejoin: miter; stroke-linecap: square"/>
   </g>
   <g id="patch_9">
    <path d="M 56.570937 284.4 
L 502.970937 284.4 
" style="fill: none; stroke: #000000; stroke-width: 0.8; stroke-linejoin: miter; stroke-linecap: square"/>
   </g>
   <g id="patch_10">
    <path d="M 56.570937 7.2 
L 502.970937 7.2 
" style="fill: none; stroke: #000000; stroke-width: 0.8; stroke-linejoin: miter; stroke-linecap: square"/>
   </g>
   <g id="text_14">
    <!-- ice-covered -->
    <g style="fill: #10948a" transform="translate(448.838915 268.220526) scale(0.08 -0.08)">
     <defs>
      <path id="ArialMT-63" d="M 2588 1216 
L 3141 1144 
Q 3050 572 2676 248 
Q 2303 -75 1759 -75 
Q 1078 -75 664 370 
Q 250 816 250 1647 
Q 250 2184 428 2587 
Q 606 2991 970 3192 
Q 1334 3394 1763 3394 
Q 2303 3394 2647 3120 
Q 2991 2847 3088 2344 
L 2541 2259 
Q 2463 2594 2264 2762 
Q 2066 2931 1784 2931 
Q 1359 2931 1093 2626 
Q 828 2322 828 1663 
Q 828 994 1084 691 
Q 1341 388 1753 388 
Q 2084 388 2306 591 
Q 2528 794 2588 1216 
z
" transform="scale(0.015625)"/>
      <path id="ArialMT-2d" d="M 203 1375 
L 203 1941 
L 1931 1941 
L 1931 1375 
L 203 1375 
z
" transform="scale(0.015625)"/>
      <path id="ArialMT-6f" d="M 213 1659 
Q 213 2581 725 3025 
Q 1153 3394 1769 3394 
Q 2453 3394 2887 2945 
Q 3322 2497 3322 1706 
Q 3322 1066 3130 698 
Q 2938 331 2570 128 
Q 2203 -75 1769 -75 
Q 1072 -75 642 372 
Q 213 819 213 1659 
z
M 791 1659 
Q 791 1022 1069 705 
Q 1347 388 1769 388 
Q 2188 388 2466 706 
Q 2744 1025 2744 1678 
Q 2744 2294 2464 2611 
Q 2184 2928 1769 2928 
Q 1347 2928 1069 2612 
Q 791 2297 791 1659 
z
" transform="scale(0.015625)"/>
      <path id="ArialMT-76" d="M 1344 0 
L 81 3319 
L 675 3319 
L 1388 1331 
Q 1503 1009 1600 663 
Q 1675 925 1809 1294 
L 2547 3319 
L 3125 3319 
L 1869 0 
L 1344 0 
z
" transform="scale(0.015625)"/>
      <path id="ArialMT-64" d="M 2575 0 
L 2575 419 
Q 2259 -75 1647 -75 
Q 1250 -75 917 144 
Q 584 363 401 755 
Q 219 1147 219 1656 
Q 219 2153 384 2558 
Q 550 2963 881 3178 
Q 1213 3394 1622 3394 
Q 1922 3394 2156 3267 
Q 2391 3141 2538 2938 
L 2538 4581 
L 3097 4581 
L 3097 0 
L 2575 0 
z
M 797 1656 
Q 797 1019 1065 703 
Q 1334 388 1700 388 
Q 2069 388 2326 689 
Q 2584 991 2584 1609 
Q 2584 2291 2321 2609 
Q 2059 2928 1675 2928 
Q 1300 2928 1048 2622 
Q 797 2316 797 1656 
z
" transform="scale(0.015625)"/>
     </defs>
     <use xlink:href="#ArialMT-69"/>
     <use xlink:href="#ArialMT-63" transform="translate(22.216797 0)"/>
     <use xlink:href="#ArialMT-65" transform="translate(72.216797 0)"/>
     <use xlink:href="#ArialMT-2d" transform="translate(127.832031 0)"/>
     <use xlink:href="#ArialMT-63" transform="translate(161.132812 0)"/>
     <use xlink:href="#ArialMT-6f" transform="translate(211.132812 0)"/>
     <use xlink:href="#ArialMT-76" transform="translate(266.748047 0)"/>
     <use xlink:href="#ArialMT-65" transform="translate(316.748047 0)"/>
     <use xlink:href="#ArialMT-72" transform="translate(372.363281 0)"/>
     <use xlink:href="#ArialMT-65" transform="translate(405.664062 0)"/>
     <use xlink:href="#ArialMT-64" transform="translate(461.279297 0)"/>
    </g>
   </g>
   <g id="text_15">
    <!-- ice-free -->
    <g style="fill: #8b6d32" transform="translate(463.513915 27.515724) scale(0.08 -0.08)">
     <defs>
      <path id="ArialMT-66" d="M 556 0 
L 556 2881 
L 59 2881 
L 59 3319 
L 556 3319 
L 556 3672 
Q 556 4006 616 4169 
Q 697 4388 901 4523 
Q 1106 4659 1475 4659 
Q 1713 4659 2000 4603 
L 1916 4113 
Q 1741 4144 1584 4144 
Q 1328 4144 1222 4034 
Q 1116 3925 1116 3625 
L 1116 3319 
L 1763 3319 
L 1763 2881 
L 1116 2881 
L 1116 0 
L 556 0 
z
" transform="scale(0.015625)"/>
     </defs>
     <use xlink:href="#ArialMT-69"/>
     <use xlink:href="#ArialMT-63" transform="translate(22.216797 0)"/>
     <use xlink:href="#ArialMT-65" transform="translate(72.216797 0)"/>
     <use xlink:href="#ArialMT-2d" transform="translate(127.832031 0)"/>
     <use xlink:href="#ArialMT-66" transform="translate(161.132812 0)"/>
     <use xlink:href="#ArialMT-72" transform="translate(188.916016 0)"/>
     <use xlink:href="#ArialMT-65" transform="translate(222.216797 0)"/>
     <use xlink:href="#ArialMT-65" transform="translate(277.832031 0)"/>
    </g>
   </g>
   <g id="text_16">
    <!-- Sturtian duration -->
    <g transform="translate(153.804219 28.555658) scale(0.1 -0.1)">
     <defs>
      <path id="ArialMT-53" d="M 288 1472 
L 859 1522 
Q 900 1178 1048 958 
Q 1197 738 1509 602 
Q 1822 466 2213 466 
Q 2559 466 2825 569 
Q 3091 672 3220 851 
Q 3350 1031 3350 1244 
Q 3350 1459 3225 1620 
Q 3100 1781 2813 1891 
Q 2628 1963 1997 2114 
Q 1366 2266 1113 2400 
Q 784 2572 623 2826 
Q 463 3081 463 3397 
Q 463 3744 659 4045 
Q 856 4347 1234 4503 
Q 1613 4659 2075 4659 
Q 2584 4659 2973 4495 
Q 3363 4331 3572 4012 
Q 3781 3694 3797 3291 
L 3216 3247 
Q 3169 3681 2898 3903 
Q 2628 4125 2100 4125 
Q 1550 4125 1298 3923 
Q 1047 3722 1047 3438 
Q 1047 3191 1225 3031 
Q 1400 2872 2139 2705 
Q 2878 2538 3153 2413 
Q 3553 2228 3743 1945 
Q 3934 1663 3934 1294 
Q 3934 928 3725 604 
Q 3516 281 3123 101 
Q 2731 -78 2241 -78 
Q 1619 -78 1198 103 
Q 778 284 539 648 
Q 300 1013 288 1472 
z
" transform="scale(0.015625)"/>
      <path id="ArialMT-6e" d="M 422 0 
L 422 3319 
L 928 3319 
L 928 2847 
Q 1294 3394 1984 3394 
Q 2284 3394 2536 3286 
Q 2788 3178 2913 3003 
Q 3038 2828 3088 2588 
Q 3119 2431 3119 2041 
L 3119 0 
L 2556 0 
L 2556 2019 
Q 2556 2363 2490 2533 
Q 2425 2703 2258 2804 
Q 2091 2906 1866 2906 
Q 1506 2906 1245 2678 
Q 984 2450 984 1813 
L 984 0 
L 422 0 
z
" transform="scale(0.015625)"/>
     </defs>
     <use xlink:href="#ArialMT-53"/>
     <use xlink:href="#ArialMT-74" transform="translate(66.699219 0)"/>
     <use xlink:href="#ArialMT-75" transform="translate(94.482422 0)"/>
     <use xlink:href="#ArialMT-72" transform="translate(150.097656 0)"/>
     <use xlink:href="#ArialMT-74" transform="translate(183.398438 0)"/>
     <use xlink:href="#ArialMT-69" transform="translate(211.181641 0)"/>
     <use xlink:href="#ArialMT-61" transform="translate(233.398438 0)"/>
     <use xlink:href="#ArialMT-6e" transform="translate(289.013672 0)"/>
     <use xlink:href="#ArialMT-20" transform="translate(344.628906 0)"/>
     <use xlink:href="#ArialMT-64" transform="translate(372.412109 0)"/>
     <use xlink:href="#ArialMT-75" transform="translate(428.027344 0)"/>
     <use xlink:href="#ArialMT-72" transform="translate(483.642578 0)"/>
     <use xlink:href="#ArialMT-61" transform="translate(516.943359 0)"/>
     <use xlink:href="#ArialMT-74" transform="translate(572.558594 0)"/>
     <use xlink:href="#ArialMT-69" transform="translate(600.341797 0)"/>
     <use xlink:href="#ArialMT-6f" transform="translate(622.558594 0)"/>
     <use xlink:href="#ArialMT-6e" transform="translate(678.173828 0)"/>
    </g>
   </g>
   <g id="text_17">
    <!-- Marinoan -->
    <g transform="translate(380.673423 22.719868) scale(0.1 -0.1)">
     <use xlink:href="#ArialMT-4d"/>
     <use xlink:href="#ArialMT-61" transform="translate(83.300781 0)"/>
     <use xlink:href="#ArialMT-72" transform="translate(138.916016 0)"/>
     <use xlink:href="#ArialMT-69" transform="translate(172.216797 0)"/>
     <use xlink:href="#ArialMT-6e" transform="translate(194.433594 0)"/>
     <use xlink:href="#ArialMT-6f" transform="translate(250.048828 0)"/>
     <use xlink:href="#ArialMT-61" transform="translate(305.664062 0)"/>
     <use xlink:href="#ArialMT-6e" transform="translate(361.279297 0)"/>
    </g>
   </g>
  </g>
 </g>
 <defs>
  <clipPath id="p1072b56dc6">
   <rect x="56.570938" y="7.2" width="446.4" height="277.2"/>
  </clipPath>
 </defs>
</svg>
